<svg xmlns="http://www.w3.org/2000/svg" width="16" height="16" fill="none"><g clip-path="url(#a)"><path fill="#9FA2B4" d="M5.502 14.198a1 1 0 0 0 .167.553l.534.803a1 1 0 0 0 .833.446h1.928a1 1 0 0 0 .833-.446l.534-.803a.998.998 0 0 0 .167-.553L10.5 13h-5l.002 1.198ZM2.5 5.5a5.47 5.47 0 0 0 1.361 3.618c.517.59 1.324 1.82 1.632 2.858l.003.024h5.008l.003-.024c.308-1.038 1.116-2.269 1.632-2.858A5.5 5.5 0 0 0 7.983 0C4.795.01 2.5 2.593 2.5 5.5ZM8 3a2.503 2.503 0 0 0-2.5 2.5.5.5 0 1 1-1 0C4.5 3.57 6.07 2 8 2a.5.5 0 1 1 0 1Z" opacity=".4"/></g><defs><clipPath id="a"><path fill="#fff" d="M0 0h16v16H0z"/></clipPath></defs></svg>